<?xml version="1.0" standalone="no"?>
<!DOCTYPE svg PUBLIC "-//W3C//DTD SVG 20010904//EN"
 "http://www.w3.org/TR/2001/REC-SVG-20010904/DTD/svg10.dtd">
<svg version="1.0" xmlns="http://www.w3.org/2000/svg"
 width="400.000000pt" height="400.000000pt" viewBox="0 0 400.000000 400.000000"
 preserveAspectRatio="xMidYMid meet">
<metadata>
Created by potrace 1.11, written by Peter Selinger 2001-2013
</metadata>
<g transform="translate(0.000000,400.000000) scale(0.100000,-0.100000)"
fill="#000000" stroke="none">
<path d="M2000 2000 l0 -1603 103 6 c491 28 950 293 1232 712 62 92 157 290
189 392 58 187 70 272 70 493 0 175 -3 220 -22 308 -96 439 -326 784 -687
1027 -92 62 -290 157 -392 189 -123 38 -275 67 -390 73 l-103 6 0 -1603z m537
1065 c337 -170 568 -479 639 -853 21 -114 21 -310 0 -424 -56 -299 -220 -563
-463 -747 -67 -51 -271 -161 -299 -161 -12 0 -14 160 -14 1120 0 960 2 1120
14 1120 8 0 63 -25 123 -55z"/>
<path d="M1685 3570 c-426 -90 -778 -327 -1020 -685 -62 -92 -157 -290 -189
-392 -58 -187 -70 -272 -70 -493 0 -175 3 -220 22 -308 34 -156 68 -255 132
-387 91 -187 194 -330 335 -464 238 -225 528 -368 868 -426 l37 -6 0 205 0
206 -27 6 c-498 109 -857 473 -949 962 -21 114 -21 310 0 424 92 489 451 853
949 962 l27 6 0 205 c0 158 -3 205 -12 204 -7 0 -53 -9 -103 -19z"/>
</g>
</svg>
