<?xml version="1.0" standalone="no"?>
<!DOCTYPE svg PUBLIC "-//W3C//DTD SVG 20010904//EN"
 "http://www.w3.org/TR/2001/REC-SVG-20010904/DTD/svg10.dtd">
<svg version="1.0" xmlns="http://www.w3.org/2000/svg"
 width="400.000000pt" height="400.000000pt" viewBox="0 0 400.000000 400.000000"
 preserveAspectRatio="xMidYMid meet">
<metadata>
Created by potrace 1.11, written by Peter Selinger 2001-2013
</metadata>
<g transform="translate(0.000000,400.000000) scale(0.100000,-0.100000)"
fill="#000000" stroke="none">
<path d="M2000 2000 l0 -1600 33 0 c53 0 207 19 292 36 187 38 395 126 570
241 136 91 337 292 428 428 366 554 366 1236 0 1790 -91 136 -292 337 -428
428 -175 115 -383 203 -570 241 -85 17 -239 36 -292 36 l-33 0 0 -1600z m570
1053 c104 -57 189 -121 280 -213 228 -229 344 -512 344 -840 0 -328 -116 -611
-344 -840 -120 -122 -258 -215 -397 -269 l-53 -21 0 1130 0 1130 53 -21 c28
-11 81 -36 117 -56z"/>
<path d="M1505 3518 c-125 -40 -281 -117 -400 -195 -136 -91 -337 -292 -428
-428 -366 -554 -366 -1236 0 -1790 88 -133 292 -337 422 -424 142 -94 275
-158 429 -207 l72 -23 -2 210 -3 210 -77 33 c-288 125 -525 375 -636 669 -58
155 -75 252 -75 427 0 175 17 272 75 427 111 294 348 544 636 669 l77 33 3
106 c1 58 1 152 0 209 l-3 104 -90 -30z"/>
</g>
</svg>
